<svg xmlns="http://www.w3.org/2000/svg" width="51" height="44" viewBox="0 0 51 44">
  <g id="Group_20" data-name="Group 20" opacity="0.3">
    <g id="Group_19" data-name="Group 19" transform="translate(15)">
      <path id="Path" d="M7.3,6.22l-3-2.766a.7.7,0,0,0-.5-.184.563.563,0,0,0-.474.237.675.675,0,0,0-.053.843l.105.132A15.335,15.335,0,0,0,5.012,6.562l.58.606a.5.5,0,0,1,.132.342.376.376,0,0,1-.158.316.5.5,0,0,1-.342.132A.376.376,0,0,1,4.906,7.8l-.553-.58A16.754,16.754,0,0,1,2.562,4.929L2.483,4.85A1.587,1.587,0,0,1,2.614,2.9c.053-.053.079-.105.132-.132L1.508.424A.791.791,0,0,0,.77,0a.7.7,0,0,0-.58.29A.79.79,0,0,0,.006.925L.849,7.247a2.292,2.292,0,0,0,.843,1.5L4.09,10.7a.723.723,0,0,1,.263.474l.158,1.317a.364.364,0,0,0,.342.316H8.278a.347.347,0,0,0,.342-.4L7.936,7.379A1.951,1.951,0,0,0,7.3,6.22Z" transform="translate(0 12.195)" fill="#4a4a4a"/>
      <path id="Path-2" data-name="Path" d="M8.459.29A.777.777,0,0,0,7.88,0a.811.811,0,0,0-.738.421L5.877,2.766l.132.132a1.624,1.624,0,0,1,.132,1.949l-.053.079A15.063,15.063,0,0,1,4.3,7.192l-.553.58a.718.718,0,0,1-.316.158A.555.555,0,0,1,3.085,7.8a.718.718,0,0,1-.158-.316.555.555,0,0,1,.132-.342l.553-.606a15.77,15.77,0,0,0,1.66-2.107l.079-.105A.675.675,0,0,0,5.3,3.477a.817.817,0,0,0-.474-.237.7.7,0,0,0-.5.184l-3,2.792A1.951,1.951,0,0,0,.688,7.376L0,12.408a.347.347,0,0,0,.342.4H3.77a.327.327,0,0,0,.342-.316l.158-1.317a.776.776,0,0,1,.263-.474l2.4-1.949a2.292,2.292,0,0,0,.843-1.5L8.617.922A.675.675,0,0,0,8.459.29Z" transform="translate(11.621 12.197)" fill="#4a4a4a"/>
      <path id="Path-3" data-name="Path" d="M3.135,3.293a19.706,19.706,0,0,0,2.239-.132A8.893,8.893,0,0,0,6.243.711.7.7,0,0,0,4.9.421C4.241,1.344,3.952,0,3.188,0S2.028,1.264,1.449.421A.772.772,0,0,0,0,.711a7.209,7.209,0,0,0,.79,2.45A22.059,22.059,0,0,0,3.135,3.293Z" transform="translate(6.988)" fill="#4a4a4a"/>
      <path id="Shape" d="M0,6.3C0,4,1.976,1.5,3.74,0A17.859,17.859,0,0,0,6.164.158,17.85,17.85,0,0,0,8.588,0c1.792,1.5,3.741,4,3.741,6.3,0,3.609-2.767,5.269-6.165,5.269S0,9.878,0,6.3Z" transform="translate(3.958 4.215)" fill="#4a4a4a"/>
    </g>
    <text id="_200_pts" data-name="200 pts" transform="translate(0 40)" fill="#4a4a4a" font-size="14" font-family="OpenSans-Semibold, Open Sans" font-weight="600" letter-spacing="0.016em"><tspan x="0" y="0">200 pts</tspan></text>
  </g>
</svg>
