<svg id="Group_21" data-name="Group 21" xmlns="http://www.w3.org/2000/svg" width="51" height="42" viewBox="0 0 51 42">
  <defs>
    <style>
      .cls-1, .cls-2 {
        fill: #5655c6;
      }

      .cls-2 {
        font-size: 14px;
        font-family: OpenSans-Semibold, Open Sans;
        font-weight: 600;
        letter-spacing: 0.016em;
      }
    </style>
  </defs>
  <path id="Shape" class="cls-1" d="M14.9,21H8.745l-.335-5.827a.738.738,0,0,1,.284-.379,1.034,1.034,0,0,0,.3-.332l.022.02a2.142,2.142,0,0,1,.38.4,4.509,4.509,0,0,1,.328.607l.026.055,0-.054c.025-.383.05-.78.117-1.242s.173-1.009.3-1.615a4.6,4.6,0,0,0,1.025.735,6.159,6.159,0,0,0,.885.31,5.477,5.477,0,0,1,1.3.5,2.573,2.573,0,0,1,1.017,1.6,28.754,28.754,0,0,1,.349,3.371c.053.726.1,1.411.151,1.844ZM7.5,21H1.282c.048-.43.1-1.112.15-1.833a28.835,28.835,0,0,1,.35-3.382,2.58,2.58,0,0,1,1.017-1.6,5.479,5.479,0,0,1,1.3-.5,6.179,6.179,0,0,0,.885-.31,4.619,4.619,0,0,0,1.025-.735l.019.091c.1.52.208,1.058.276,1.524s.093.877.117,1.268l0,.028.014-.029a4.637,4.637,0,0,1,.341-.633,2.145,2.145,0,0,1,.376-.4l.026-.023a.954.954,0,0,0,.309.331.621.621,0,0,1,.269.388L7.5,21Zm.47-7.113h0L6.607,12.834a.472.472,0,0,1-.186-.383v-.871l-.107-.113a1.131,1.131,0,0,1-.321-.737l-.033-.488-.006,0a.683.683,0,0,1-.238-.115.488.488,0,0,1-.148-.244,4.739,4.739,0,0,1-.135-.5,3.679,3.679,0,0,1-.07-.464.791.791,0,0,1,.025-.336.3.3,0,0,1,.174-.18.187.187,0,0,1,.065-.011h.017a.2.2,0,0,0,.033,0c.006,0,.009,0,.009-.006s-.005-.009-.011-.014-.012-.01-.013-.015V8.337a.152.152,0,0,1-.018-.022,2.977,2.977,0,0,1-.431-1.367,5.4,5.4,0,0,1,.1-1.4.528.528,0,0,0,.284.107.508.508,0,0,0,.241-.07,3.4,3.4,0,0,0,.427-.305,5.94,5.94,0,0,1,.606-.434,2.5,2.5,0,0,1,1.259-.363l.106,0A2.243,2.243,0,0,1,9.5,4.929a1.411,1.411,0,0,1,.418.835l0,.011h.1a.515.515,0,0,1,.5.25,2.34,2.34,0,0,1,.219,1.239,2,2,0,0,1-.381,1.057l-.022.023c-.009.009-.017.018-.026.026l0,.014a.426.426,0,0,1,.125.029.31.31,0,0,1,.2.193,1.1,1.1,0,0,1,.016.416,3.073,3.073,0,0,1-.072.464,2.833,2.833,0,0,1-.135.422.535.535,0,0,1-.148.227.653.653,0,0,1-.238.113l-.027.008L10,10.263l-.031.471a1.139,1.139,0,0,1-.318.732l-.125.133v.852a.472.472,0,0,1-.186.383L7.973,13.887Zm-5.845-.328h0l-.294-.294a.515.515,0,0,1,0-.725l.781-.781a6.531,6.531,0,0,1-1-2.4H.512A.513.513,0,0,1,0,8.841V7.326a.513.513,0,0,1,.512-.512h1.1a6.535,6.535,0,0,1,1-2.407l-.781-.779a.516.516,0,0,1,0-.725L2.905,1.832a.506.506,0,0,1,.362-.149.513.513,0,0,1,.364.149l.781.78a6.512,6.512,0,0,1,2.407-1V.512A.513.513,0,0,1,7.331,0H8.845a.513.513,0,0,1,.513.512v1.1a6.522,6.522,0,0,1,2.407,1l.781-.78a.516.516,0,0,1,.725,0L14.343,2.9a.516.516,0,0,1,0,.725l-.781.779a6.538,6.538,0,0,1,1,2.407h1.1a.513.513,0,0,1,.512.512V8.841a.513.513,0,0,1-.512.512h-1.1a6.55,6.55,0,0,1-1,2.408l.781.778a.515.515,0,0,1,0,.725l-.295.294c-.052-.038-.1-.077-.158-.115a4.8,4.8,0,0,0-1.306-.549c-.072-.023-.157-.047-.246-.072a4.49,4.49,0,0,1-.732-.252,2.968,2.968,0,0,1-.414-.256,5.248,5.248,0,1,0-6.209,0,2.967,2.967,0,0,1-.414.256,4.482,4.482,0,0,1-.729.251c-.09.026-.175.05-.248.073a4.743,4.743,0,0,0-1.306.549c-.056.039-.108.078-.158.116Z" transform="translate(17)"/>
  <text id="_150_pts" data-name="150 pts" class="cls-2" transform="translate(0 38)"><tspan x="0" y="0">150 pts</tspan></text>
</svg>
